<svg xmlns="http://www.w3.org/2000/svg" width="16" height="16" viewBox="0 0 16 16">
  <circle cx="8" cy="8" r="7" fill="#238636"/>
  <path d="M8 1C4.13 1 1 4.13 1 8c0 3.1 2.01 5.73 4.79 6.65.35.06.48-.15.48-.33 0-.17-.01-.71-.01-1.31-1.77.33-2.22-.43-2.36-.83-.08-.2-.42-.83-.72-.99-.25-.13-.6-.46-.01-.47.55-.01.95.51 1.08.72.63 1.06 1.64.76 2.04.58.06-.46.25-.77.45-.94-1.56-.18-3.19-.78-3.19-3.46 0-.76.27-1.39.72-1.88-.07-.17-.31-.9.07-1.86 0 0 .59-.18 1.93.72.56-.16 1.16-.24 1.75-.24.6 0 1.19.08 1.75.24 1.34-.91 1.93-.72 1.93-.72.38.96.14 1.69.07 1.86.45.49.72 1.11.72 1.88 0 2.69-1.64 3.28-3.2 3.46.25.22.47.64.47 1.3 0 .94-.01 1.69-.01 1.93 0 .19.13.4.48.33C12.99 13.73 15 11.09 15 8c0-3.87-3.13-7-7-7z" fill="white"/>
  <circle cx="11" cy="11" r="4" fill="#58a6ff"/>
  <path d="M11 9v4M9 11h4" stroke="white" stroke-width="1.5" stroke-linecap="round"/>
</svg>

