<svg xmlns="http://www.w3.org/2000/svg" width="48" height="48" viewBox="0 0 48 48">
  <circle cx="24" cy="24" r="22" fill="#238636"/>
  <path d="M24 4C12.95 4 4 12.95 4 24c0 9.73 6.31 17.98 15.06 20.89 1.1.18 1.51-.47 1.51-1.04 0-.53-.02-2.26-.03-4.1-6.13 1.33-7.43-2.6-7.43-2.6-1-.55-2.44-1.38-2.86-2.48-.79-.65-1.93-1.48-.04-1.51 1.78-.03 3.05 1.63 3.47 2.31 2.03 3.43 5.32 2.46 6.62 1.88.2-1.46.79-2.46 1.44-3.03-5.37-.61-11.01-2.68-11.01-11.93 0-2.63.94-4.79 2.49-6.48-.25-.61-1.08-3.08.23-6.41 0 0 2.03-.65 6.66 2.48 1.93-.54 4-.8 6.07-.81 2.06.01 4.14.28 6.07.81 4.62-3.14 6.65-2.48 6.65-2.48 1.32 3.33.49 5.8.24 6.41 1.55 1.69 2.49 3.84 2.49 6.48 0 9.28-5.66 11.31-11.05 11.91.87.75 1.64 2.23 1.64 4.49 0 3.24-.03 5.86-.03 6.65 0 .57.4 1.24 1.51 1.03C37.69 41.97 44 33.72 44 24 44 12.95 35.05 4 24 4z" fill="white"/>
  <circle cx="34" cy="34" r="11" fill="#58a6ff"/>
  <path d="M34 28v12M28 34h12" stroke="white" stroke-width="3" stroke-linecap="round"/>
</svg>

