<svg xmlns="http://www.w3.org/2000/svg" width="128" height="128" viewBox="0 0 128 128">
  <defs>
    <linearGradient id="bgGrad" x1="0%" y1="0%" x2="100%" y2="100%">
      <stop offset="0%" style="stop-color:#238636"/>
      <stop offset="100%" style="stop-color:#1a7f2b"/>
    </linearGradient>
    <linearGradient id="plusGrad" x1="0%" y1="0%" x2="100%" y2="100%">
      <stop offset="0%" style="stop-color:#79c0ff"/>
      <stop offset="100%" style="stop-color:#58a6ff"/>
    </linearGradient>
  </defs>
  <circle cx="64" cy="64" r="60" fill="url(#bgGrad)"/>
  <path d="M64 8C33.07 8 8 33.07 8 64c0 27.33 17.73 50.51 42.32 58.68 3.09.5 4.24-1.32 4.24-2.92 0-1.48-.06-6.36-.09-11.53-17.22 3.73-20.85-7.31-20.85-7.31-2.81-7.14-6.87-9.04-6.87-9.04-5.62-3.84-.11-3.76-.11-3.76 6.21.44 9.48 6.38 9.48 6.38 5.52 9.46 14.49 6.73 18.02 5.14.55-4 2.16-6.73 3.93-8.28-13.75-1.56-28.21-6.87-28.21-30.59 0-6.76 2.42-12.29 6.38-16.62-.64-1.56-2.76-7.85.6-16.37 0 0 5.2-1.66 17.05 6.35 4.94-1.38 10.25-2.06 15.52-2.09 5.27.03 10.57.71 15.52 2.09 11.83-8.02 17.02-6.35 17.02-6.35 3.38 8.52 1.26 14.81.62 16.37 3.97 4.33 6.37 9.86 6.37 16.62 0 23.79-14.49 29.01-28.29 30.54 2.22 1.92 4.21 5.7 4.21 11.49 0 8.29-.08 14.98-.08 17.02 0 1.62 1.11 3.47 4.27 2.88C102.27 114.48 120 91.31 120 64 120 33.07 94.93 8 64 8z" fill="white"/>
  <circle cx="92" cy="92" r="30" fill="url(#plusGrad)"/>
  <path d="M92 74v36M74 92h36" stroke="white" stroke-width="8" stroke-linecap="round"/>
</svg>

